<?xml version="1.0" standalone="no"?>
<!DOCTYPE svg PUBLIC "-//W3C//DTD SVG 20010904//EN"
 "http://www.w3.org/TR/2001/REC-SVG-20010904/DTD/svg10.dtd">
<svg version="1.0" xmlns="http://www.w3.org/2000/svg"
 width="100.000000pt" height="100.000000pt" viewBox="0 0 100.000000 100.000000"
 preserveAspectRatio="xMidYMid meet">
<metadata>
Created by potrace 1.11, written by Peter Selinger 2001-2013
</metadata>
<g transform="translate(0.000000,100.000000) scale(0.100000,-0.100000)"
fill="#000000" stroke="none">
<path d="M592 870 c-33 -22 -76 -59 -97 -81 -86 -95 -229 -358 -214 -394 5
-13 8 -15 8 -5 2 26 118 249 165 314 51 72 141 158 195 186 20 10 29 19 20 20
-9 0 -44 -18 -77 -40z"/>
<path d="M710 842 c0 -5 9 -17 20 -27 11 -10 25 -36 32 -57 11 -37 21 -47 32
-29 8 13 -19 73 -41 92 -27 23 -43 31 -43 21z"/>
<path d="M808 673 c7 -3 16 -2 19 1 4 3 -2 6 -13 5 -11 0 -14 -3 -6 -6z"/>
<path d="M488 522 c-34 -12 -56 -29 -78 -59 -16 -24 -26 -43 -20 -43 5 0 21
17 35 39 20 29 37 42 71 51 24 7 44 17 44 21 0 5 -1 9 -2 8 -2 0 -24 -8 -50
-17z"/>
<path d="M160 409 c-14 -6 -33 -8 -44 -5 -14 4 -16 2 -8 -6 8 -8 24 -9 57 -1
25 6 45 7 45 2 0 -4 -4 -9 -10 -11 -6 -2 -4 -24 5 -58 14 -53 13 -58 -15 -147
-17 -51 -30 -95 -30 -98 0 -3 18 -5 40 -5 35 0 42 4 51 27 13 35 4 57 -21 50
-17 -4 -19 -1 -13 21 3 15 10 37 14 50 5 14 3 47 -7 88 -10 46 -12 70 -5 78
21 25 -12 33 -59 15z"/>
<path d="M800 170 c0 -93 1 -100 20 -100 19 0 20 7 20 100 0 93 -1 100 -20
100 -19 0 -20 -7 -20 -100z"/>
</g>
</svg>
